<?xml version="1.0" standalone="no"?>
<!DOCTYPE svg PUBLIC "-//W3C//DTD SVG 20010904//EN"
 "http://www.w3.org/TR/2001/REC-SVG-20010904/DTD/svg10.dtd">
<svg version="1.0" xmlns="http://www.w3.org/2000/svg"
 width="200.000000pt" height="200.000000pt" viewBox="0 0 200.000000 200.000000"
 preserveAspectRatio="xMidYMid meet">
<metadata>
Created by potrace 1.14, written by Peter Selinger 2001-2017
</metadata>
<g transform="translate(0.000000,200.000000) scale(0.100000,-0.100000)"
fill="#000000" stroke="none">
<path d="M618 1874 c-15 -8 -32 -23 -38 -34 -10 -19 -14 -60 -5 -60 10 0 65
63 71 82 8 27 4 29 -28 12z"/>
<path d="M688 1867 l-43 -22 40 -3 c44 -4 120 17 108 29 -19 18 -63 16 -105
-4z"/>
<path d="M1230 1880 c-24 -7 -24 -8 13 -24 22 -9 55 -16 75 -14 l36 3 -29 19
c-33 22 -59 26 -95 16z"/>
<path d="M1362 1860 c8 -18 29 -45 47 -59 l34 -26 -7 25 c-12 42 -28 68 -45
74 -9 3 -22 9 -29 12 -10 5 -10 0 0 -26z"/>
<path d="M516 1818 c-25 -22 -38 -42 -39 -60 -1 -16 -7 -28 -13 -28 -6 0 -30
-18 -52 -41 -37 -36 -42 -46 -42 -85 0 -28 4 -43 10 -39 7 4 7 -3 0 -20 -18
-46 -11 -46 53 2 63 48 110 94 102 101 -2 2 -30 -9 -62 -24 -69 -33 -82 -38
-68 -27 26 20 55 68 55 89 0 12 4 26 10 29 6 4 7 -1 3 -12 -6 -15 -4 -16 9 -5
24 19 68 86 73 110 2 12 7 27 10 32 13 21 -13 9 -49 -22z"/>
<path d="M1452 1811 c6 -25 28 -60 54 -88 24 -26 44 -52 44 -57 0 -6 20 -33
44 -61 l43 -49 -2 49 c-3 44 -8 53 -48 91 -37 34 -47 39 -50 26 -3 -9 -5 -1
-6 18 -2 38 -21 68 -63 94 l-26 17 10 -40z"/>
<path d="M640 1818 c-22 -8 -62 -50 -54 -57 8 -9 91 22 119 45 l30 24 -37 -2
c-20 -1 -46 -6 -58 -10z"/>
<path d="M1290 1815 c12 -14 119 -59 126 -52 2 2 -3 13 -12 25 -14 20 -69 42
-108 42 -15 0 -16 -3 -6 -15z"/>
<path d="M1374 1738 c16 -13 57 -35 92 -49 l63 -26 -25 33 c-26 33 -40 41 -91
50 -16 3 -37 7 -48 10 -15 4 -13 -1 9 -18z"/>
<path d="M565 1742 c-11 -4 -27 -11 -35 -17 -21 -13 -53 -65 -41 -65 5 0 12 4
15 9 4 5 26 16 51 25 25 8 57 24 72 35 l26 21 -34 -1 c-19 -1 -43 -4 -54 -7z"/>
<path d="M985 1718 c-75 -74 -248 -102 -368 -59 -40 13 -57 16 -58 8 -5 -63 0
-475 6 -517 16 -119 66 -249 135 -350 49 -72 161 -177 242 -225 l62 -37 41 20
c135 66 268 208 338 363 63 138 69 178 74 462 3 141 7 257 10 257 3 0 24 -18
46 -41 22 -22 53 -47 68 -55 16 -8 33 -22 38 -31 9 -16 10 -14 11 9 0 40 -42
82 -109 109 -34 13 -61 30 -61 37 0 10 -6 12 -17 7 -122 -52 -297 -40 -386 27
-48 37 -50 37 -72 16z"/>
<path d="M324 1591 c-49 -60 -59 -117 -35 -201 l13 -45 24 64 c26 70 33 116
24 172 l-5 36 -21 -26z"/>
<path d="M1654 1547 c1 -48 10 -93 26 -136 l24 -65 13 50 c20 77 16 115 -16
166 -44 69 -49 67 -47 -15z"/>
<path d="M441 1523 c0 -7 -19 -24 -41 -38 -44 -28 -55 -44 -65 -99 l-8 -38 28
23 c68 58 99 106 92 142 -2 12 -5 16 -6 10z"/>
<path d="M1558 1494 c4 -24 98 -134 113 -134 9 0 -4 59 -19 86 -6 11 -27 29
-46 39 -20 11 -36 23 -36 27 0 5 -4 8 -9 8 -4 0 -6 -12 -3 -26z"/>
<path d="M219 1429 c-16 -58 -20 -139 -7 -164 14 -26 66 -85 74 -85 4 0 6 39
5 87 -2 71 -7 96 -31 146 l-28 60 -13 -44z"/>
<path d="M1741 1408 c-19 -42 -25 -72 -27 -145 -1 -51 0 -93 3 -93 5 0 49 51
71 81 7 10 14 35 16 56 3 39 -21 153 -33 153 -3 0 -17 -24 -30 -52z"/>
<path d="M357 1338 c-49 -49 -53 -57 -53 -100 -1 -27 2 -48 5 -48 10 0 67 72
83 105 17 33 33 95 24 95 -3 0 -29 -24 -59 -52z"/>
<path d="M1598 1341 c9 -28 35 -73 57 -101 l40 -51 3 47 c3 39 -1 52 -25 81
-15 19 -42 43 -60 54 l-32 21 17 -51z"/>
<path d="M1790 1232 c-32 -43 -45 -67 -65 -127 -6 -17 -9 -14 -20 19 -8 22
-32 57 -54 79 l-39 40 4 -59 c3 -40 15 -79 37 -122 38 -75 47 -84 47 -43 0 16
4 32 9 35 4 3 5 -13 0 -37 -12 -64 -11 -69 10 -49 10 9 34 32 54 50 45 41 58
87 55 187 -2 41 -3 75 -3 75 0 0 -16 -21 -35 -48z"/>
<path d="M179 1230 c-3 -130 15 -190 65 -223 14 -9 35 -27 47 -39 l22 -23 -7
29 c-4 15 -9 42 -11 60 -4 26 -3 25 9 -9 l13 -40 24 45 c39 73 47 102 48 160
l1 55 -40 -45 c-22 -25 -47 -65 -54 -90 -13 -41 -15 -42 -15 -15 -1 29 -40
106 -80 155 l-21 25 -1 -45z"/>
<path d="M363 1028 c-35 -66 -37 -103 -11 -155 l23 -46 13 44 c18 63 20 108 8
157 l-11 42 -22 -42z"/>
<path d="M1612 1058 c-1 -7 -3 -31 -6 -53 -3 -22 -1 -65 6 -95 6 -30 11 -61
11 -67 1 -23 12 -13 32 28 23 50 22 82 -8 148 -22 51 -33 62 -35 39z"/>
<path d="M176 984 c47 -129 69 -156 155 -189 34 -14 64 -25 66 -25 2 0 -7 15
-21 33 -15 19 -26 37 -26 41 0 22 -73 110 -122 146 -32 23 -58 46 -58 51 0 5
-4 9 -9 9 -5 0 2 -30 15 -66z"/>
<path d="M1817 1027 c-80 -62 -111 -96 -156 -171 -48 -79 -56 -101 -27 -77 8
7 27 14 43 17 64 12 112 67 148 174 14 40 24 74 22 76 -1 1 -15 -8 -30 -19z"/>
<path d="M414 889 c-4 -24 -7 -52 -7 -61 0 -10 1 -29 2 -42 1 -14 20 -42 48
-69 48 -47 62 -53 45 -20 -5 10 -12 38 -16 63 -8 62 -16 87 -42 133 l-22 39
-8 -43z"/>
<path d="M1553 881 c-21 -44 -25 -59 -38 -140 -3 -19 -10 -42 -16 -52 -18 -34
6 -20 55 32 l49 52 -7 71 c-4 39 -10 74 -14 77 -4 4 -17 -14 -29 -40z"/>
<path d="M1465 782 c-16 -15 -41 -41 -54 -57 -21 -26 -23 -27 -18 -7 5 23 -7
30 -18 11 -4 -5 -30 -21 -58 -35 -29 -13 -68 -39 -87 -57 -46 -44 -81 -63
-164 -90 l-69 -23 -64 23 c-87 31 -112 45 -156 86 -21 19 -59 45 -85 58 -26
12 -56 30 -66 38 -18 15 -19 14 -12 -24 l7 -40 -23 44 c-13 25 -38 56 -56 69
l-32 25 5 -44 c8 -59 33 -100 81 -126 51 -30 58 -29 37 5 l-18 27 31 -25 c17
-14 40 -30 50 -36 15 -9 12 -10 -19 -8 -21 2 -57 -5 -83 -16 -54 -24 -66 -25
-40 -5 11 8 29 15 40 15 35 0 4 17 -69 37 -38 11 -78 19 -88 17 -9 -1 -17 2
-17 8 0 7 14 8 36 5 31 -5 34 -4 23 9 -29 35 -133 104 -167 110 -20 4 -43 11
-50 17 -21 17 -13 -3 20 -49 33 -46 83 -84 112 -84 22 0 21 -20 -1 -21 -10 -1
-22 -1 -27 0 -5 1 -16 -1 -24 -4 -15 -6 -8 -10 88 -62 14 -7 41 -13 60 -13 19
0 62 -8 95 -18 48 -14 73 -16 125 -9 36 4 72 9 80 10 32 3 129 -15 145 -27 16
-12 15 -14 -15 -20 -23 -4 -30 -10 -24 -16 7 -7 26 -5 59 4 41 13 54 13 88 1
23 -8 48 -10 61 -6 19 8 18 9 -11 15 -18 4 -33 11 -33 16 0 13 97 33 148 30
126 -5 220 -2 247 10 17 7 43 12 58 11 30 -3 127 40 147 64 11 13 6 15 -31 17
-81 2 -124 -3 -179 -21 l-55 -18 39 -17 c22 -9 37 -19 34 -22 -3 -3 -23 2 -44
11 -22 9 -56 20 -76 23 l-37 7 35 23 c34 22 35 22 24 2 -13 -25 -13 -25 37 0
56 27 70 50 88 153 3 15 4 27 3 27 -2 0 -16 -13 -33 -28z"/>
<path d="M1735 790 c-11 -4 -38 -13 -60 -19 -39 -10 -153 -94 -147 -108 1 -4
26 -6 55 -4 53 2 97 24 127 65 23 31 52 76 48 75 -1 0 -12 -4 -23 -9z"/>
<path d="M834 445 c-8 -20 2 -45 18 -44 10 0 10 2 1 6 -20 7 -15 26 5 19 15
-5 15 -5 -1 8 -18 14 -18 14 0 19 17 4 17 5 0 6 -10 0 -20 -6 -23 -14z"/>
<path d="M1065 450 c-3 -6 -3 -20 1 -32 6 -19 7 -20 16 -4 9 16 11 16 23 -1
10 -14 17 -15 25 -7 13 13 4 54 -11 54 -6 0 -8 -4 -4 -9 3 -5 1 -12 -5 -16 -6
-3 -13 1 -16 9 -7 18 -20 21 -29 6z m20 -9 c3 -5 1 -12 -5 -16 -5 -3 -10 1
-10 9 0 18 6 21 15 7z m41 -28 c-10 -10 -19 5 -10 18 6 11 8 11 12 0 2 -7 1
-15 -2 -18z"/>
<path d="M1160 453 c5 -2 10 -13 10 -23 0 -10 -5 -21 -10 -23 -6 -3 -5 -4 2
-3 7 2 13 13 13 26 0 13 -6 24 -13 26 -7 1 -8 0 -2 -3z"/>
<path d="M960 435 c-9 -11 -10 -19 -3 -26 8 -8 13 -7 18 2 5 8 4 10 -3 5 -7
-4 -12 -3 -12 3 0 5 6 11 13 14 6 2 9 7 6 11 -3 4 -12 -1 -19 -9z"/>
<path d="M890 430 c0 -5 5 -10 11 -10 5 0 7 5 4 10 -3 6 -8 10 -11 10 -2 0 -4
-4 -4 -10z"/>
<path d="M932 420 c0 -14 2 -19 5 -12 2 6 2 18 0 25 -3 6 -5 1 -5 -13z"/>
<path d="M1035 420 c-3 -5 -1 -10 4 -10 6 0 11 5 11 10 0 6 -2 10 -4 10 -3 0
-8 -4 -11 -10z"/>
<path d="M898 403 c7 -3 16 -2 19 1 4 3 -2 6 -13 5 -11 0 -14 -3 -6 -6z"/>
<path d="M637 372 c-18 -2 -27 -8 -24 -16 3 -6 -1 -22 -7 -35 -12 -22 -12 -22
-31 13 -12 22 -27 36 -38 36 -10 0 -17 -3 -15 -8 28 -65 63 -119 75 -115 13 5
79 123 71 127 -2 1 -16 0 -31 -2z"/>
<path d="M1334 372 c-43 -7 -73 -63 -50 -93 14 -20 46 -36 66 -34 8 1 23 3 32
3 41 4 66 75 35 100 -20 17 -60 28 -83 24z m50 -35 c25 -19 16 -50 -18 -62
-24 -8 -31 -6 -48 15 l-20 24 22 18 c26 21 40 22 64 5z"/>
<path d="M350 311 c0 -41 4 -60 14 -64 19 -7 26 1 26 30 0 31 25 30 46 -2 10
-16 26 -25 42 -25 24 0 24 1 9 18 -18 20 -22 42 -8 42 17 0 20 29 5 45 -10 10
-35 15 -75 15 l-59 0 0 -59z m93 30 c4 -1 7 -5 7 -11 0 -5 -13 -10 -30 -10
-20 0 -30 5 -30 15 0 10 7 14 23 11 12 -3 25 -5 30 -5z"/>
<path d="M703 363 c-14 -5 -18 -49 -5 -57 5 -3 27 -6 50 -7 25 -2 41 -7 39
-13 -2 -6 -25 -10 -50 -9 -36 2 -47 -1 -47 -12 0 -8 9 -15 20 -16 11 -1 28 -2
38 -2 42 -2 82 13 82 31 0 28 -20 42 -61 42 -38 0 -60 14 -36 22 6 3 31 3 55
2 32 -3 42 0 42 11 0 12 -13 15 -57 14 -32 0 -64 -3 -70 -6z"/>
<path d="M963 358 c-26 -12 -37 -39 -28 -67 10 -32 89 -56 133 -40 16 6 20 14
16 36 -6 34 -2 31 -49 35 -30 2 -40 -1 -40 -12 0 -9 9 -15 23 -14 25 1 30 -14
8 -22 -22 -8 -56 14 -56 37 0 24 44 43 68 30 19 -11 56 5 47 20 -8 12 -94 10
-122 -3z"/>
<path d="M1110 306 c0 -59 2 -64 20 -59 10 3 19 8 18 12 -5 45 13 52 45 18 12
-13 32 -26 45 -29 23 -6 22 2 -6 34 -13 16 -13 18 2 24 19 7 21 35 4 52 -7 7
-38 12 -70 12 l-58 0 0 -64z m93 35 c5 -1 5 -5 2 -11 -10 -16 -55 -12 -55 5 0
10 7 14 23 11 12 -3 26 -5 30 -5z"/>
<path d="M1447 329 c4 -56 26 -79 73 -79 46 0 69 24 73 76 2 34 -1 39 -21 42
-20 3 -22 0 -19 -25 5 -36 -9 -63 -33 -63 -24 0 -34 16 -35 55 -1 22 -6 31
-21 33 -18 3 -20 -2 -17 -39z"/>
<path d="M1619 355 c-5 -89 2 -118 25 -109 9 3 15 9 14 12 -3 30 4 41 30 40
42 -1 72 12 72 31 0 30 -22 41 -82 41 -45 0 -58 -3 -59 -15z m101 -14 c2 -1
-1 -6 -7 -12 -14 -14 -67 -3 -58 12 5 8 20 8 65 0z"/>
<path d="M474 196 c-16 -41 13 -76 46 -56 15 9 6 40 -11 40 -8 0 -9 -4 0 -13
13 -17 5 -28 -15 -20 -11 4 -13 14 -9 34 7 30 -1 40 -11 15z"/>
<path d="M500 200 c0 -6 7 -10 15 -10 8 0 15 2 15 4 0 2 -7 6 -15 10 -8 3 -15
1 -15 -4z"/>
<path d="M1353 200 c-29 -12 -30 -46 -3 -60 15 -8 25 -8 38 0 15 10 14 11 -5
7 -24 -5 -49 16 -38 33 3 5 13 10 21 10 8 0 14 5 14 10 0 6 -1 10 -2 9 -2 0
-13 -4 -25 -9z"/>
<path d="M623 165 c0 -22 2 -30 4 -17 2 12 2 30 0 40 -3 9 -5 -1 -4 -23z"/>
<path d="M658 180 c-21 -19 -23 -36 -7 -46 8 -4 9 0 4 15 -3 12 -2 21 4 21 5
0 11 -8 13 -17 3 -13 6 -9 10 10 7 34 -1 40 -24 17z"/>
<path d="M855 175 c2 -37 15 -43 15 -7 0 18 -4 32 -8 32 -4 0 -7 -11 -7 -25z"/>
<path d="M1013 168 c-1 -17 1 -28 4 -24 10 10 14 44 5 50 -4 2 -8 -10 -9 -26z"/>
<path d="M1283 173 c1 -18 6 -28 10 -24 4 4 3 18 -2 32 -9 23 -9 22 -8 -8z"/>
<path d="M1612 170 c0 -19 2 -27 5 -17 2 9 2 25 0 35 -3 9 -5 1 -5 -18z"/>
<path d="M1159 188 c-6 -21 -5 -39 2 -44 5 -3 9 6 9 20 0 21 -7 36 -11 24z"/>
<path d="M1537 177 c-3 -8 -1 -20 4 -28 6 -10 9 -7 9 14 0 29 -5 35 -13 14z"/>
<path d="M541 164 c-1 -21 21 -39 33 -27 3 4 6 16 5 27 -1 18 -2 18 -9 -4 l-7
-25 -11 25 c-10 23 -11 23 -11 4z"/>
<path d="M593 159 c-2 -23 3 -25 10 -4 4 8 3 16 -1 19 -4 3 -9 -4 -9 -15z"/>
<path d="M721 158 c1 -17 3 -18 6 -5 2 9 8 17 13 17 5 0 11 -8 14 -17 4 -14 4
-14 3 2 -3 30 -37 33 -36 3z"/>
<path d="M774 165 c-4 -9 -1 -22 6 -28 10 -9 11 -7 5 11 -5 16 -2 22 9 22 18
0 13 -39 -6 -52 -10 -6 -8 -8 5 -8 9 0 18 7 18 15 1 8 2 23 3 32 1 23 -32 29
-40 8z"/>
<path d="M883 164 c-3 -8 0 -21 7 -27 10 -9 11 -9 5 2 -5 9 -1 19 10 28 17 12
17 13 2 13 -10 0 -20 -7 -24 -16z"/>
<path d="M935 160 c2 -31 15 -37 15 -7 0 15 -4 27 -8 27 -5 0 -8 -9 -7 -20z"/>
<path d="M964 169 c-3 -6 1 -18 10 -27 9 -9 16 -11 16 -5 0 6 3 18 6 27 7 18
-21 23 -32 5z m26 -3 c0 -3 -4 -8 -10 -11 -5 -3 -10 -1 -10 4 0 6 5 11 10 11
6 0 10 -2 10 -4z"/>
<path d="M1067 173 c-12 -11 -7 -31 9 -37 8 -3 12 -2 9 3 -3 5 -1 12 5 16 5 3
10 10 10 16 0 10 -23 12 -33 2z m23 -7 c0 -3 -4 -8 -10 -11 -5 -3 -10 -1 -10
4 0 6 5 11 10 11 6 0 10 -2 10 -4z"/>
<path d="M1113 164 c-3 -8 0 -21 7 -27 10 -10 12 -8 6 7 -4 12 -1 23 6 28 11
6 11 8 0 8 -7 0 -15 -7 -19 -16z"/>
<path d="M1249 166 c8 -9 11 -19 7 -23 -3 -3 -6 -2 -6 4 0 5 -14 7 -31 5 -22
-3 -30 -1 -25 7 4 6 2 11 -3 11 -17 0 -13 -19 7 -27 32 -15 67 -9 67 11 0 11
-7 22 -15 24 -13 5 -13 3 -1 -12z"/>
<path d="M1414 160 c0 -11 4 -20 9 -20 4 0 12 0 18 0 5 0 7 5 3 11 -4 8 -9 7
-15 -2 -5 -8 -9 -9 -9 -3 0 5 5 15 12 22 9 9 9 12 -4 12 -9 0 -15 -8 -14 -20z"/>
<path d="M1462 143 c1 -37 1 -37 5 -5 2 17 9 32 15 32 6 0 8 -10 5 -21 -4 -16
-3 -19 5 -11 14 14 3 42 -17 42 -11 0 -15 -10 -13 -37z"/>
<path d="M1510 160 c0 -11 4 -20 9 -20 5 0 7 9 4 20 -3 11 -7 20 -9 20 -2 0
-4 -9 -4 -20z"/>
<path d="M1566 164 c-8 -22 -8 -26 3 -20 5 4 11 1 13 -6 3 -9 6 -9 12 0 4 7 2
12 -3 12 -6 0 -11 5 -11 11 0 5 5 7 12 3 7 -4 8 -3 4 4 -10 17 -23 15 -30 -4z"/>
<path d="M702 150 c0 -14 2 -19 5 -12 2 6 2 18 0 25 -3 6 -5 1 -5 -13z"/>
<path d="M1041 154 c0 -11 3 -14 6 -6 3 7 2 16 -1 19 -3 4 -6 -2 -5 -13z"/>
</g>
</svg>
